<?xml version="1.0" standalone="no"?>
<!DOCTYPE svg PUBLIC "-//W3C//DTD SVG 20010904//EN"
 "http://www.w3.org/TR/2001/REC-SVG-20010904/DTD/svg10.dtd">
<svg version="1.0" xmlns="http://www.w3.org/2000/svg"
 width="256.000000pt" height="256.000000pt" viewBox="0 0 256.000000 256.000000"
 preserveAspectRatio="xMidYMid meet">
<metadata>
Created by potrace 1.13, written by Peter Selinger 2001-2015
</metadata>
<g transform="translate(0.000000,256.000000) scale(0.100000,-0.100000)"
fill="#AC4AC2" stroke="#000000" stroke-width="100">
<path d="M658 2545 c-61 -23 -128 -74 -145 -110 -26 -54 -13 -61 134 -68 190
-10 447 -38 459 -51 6 -6 19 -51 28 -101 10 -49 20 -100 23 -112 4 -20 2 -21
-36 -16 -54 7 -84 -2 -125 -37 -33 -30 -34 -30 -72 -14 -86 36 -184 -8 -230
-103 -22 -44 -26 -63 -21 -101 5 -47 5 -49 -29 -67 -54 -29 -89 -96 -89 -172
0 -57 -3 -64 -33 -94 -39 -38 -56 -70 -66 -118 -13 -69 31 -155 92 -180 27
-12 29 -15 24 -56 -10 -91 71 -197 162 -212 25 -4 35 -10 32 -19 -39 -102 21
-230 119 -255 42 -11 43 -11 34 -42 -30 -103 63 -227 170 -227 40 0 41 -1 41
-32 1 -73 56 -146 121 -161 22 -6 28 -14 33 -50 9 -61 40 -105 89 -127 54 -25
81 -25 135 1 53 26 97 89 106 153 6 39 10 44 44 54 21 6 51 25 67 42 27 28 30
38 30 99 0 56 -4 74 -26 107 l-27 40 40 34 c67 56 95 152 64 221 -5 12 0 19
22 27 46 16 99 69 118 117 21 56 15 126 -15 166 l-21 28 27 15 c66 34 105 105
102 181 -2 45 2 58 24 84 31 37 42 85 33 145 -7 47 -56 121 -86 131 -16 5 -19
15 -18 63 1 88 -40 148 -114 166 -25 6 -28 11 -28 52 0 112 -96 201 -208 192
-47 -4 -60 -10 -86 -39 l-31 -34 -49 33 c-50 33 -93 40 -138 23 -24 -9 -24 -9
-41 116 -19 138 -33 170 -89 209 -108 75 -452 137 -550 99z"/>
</g>
</svg>
